<svg xmlns="http://www.w3.org/2000/svg" style="display: none">
  <!-- Site icon set: 24px grid, 1.5px stroke, round caps — tinted via
       currentColor so every icon themes for free. -->
  <symbol id="sun" viewBox="0 0 24 24" fill="none" stroke="currentColor" stroke-width="1.5" stroke-linecap="round" stroke-linejoin="round">
    <circle cx="12" cy="12" r="4" />
    <path d="M12 2.75v2M12 19.25v2M2.75 12h2M19.25 12h2M5.28 5.28l1.42 1.42M17.3 17.3l1.42 1.42M18.72 5.28 17.3 6.7M6.7 17.3l-1.42 1.42" />
  </symbol>
  <symbol id="moon" viewBox="0 0 24 24" fill="none" stroke="currentColor" stroke-width="1.5" stroke-linecap="round" stroke-linejoin="round">
    <path d="M20 14.5A8.5 8.5 0 0 1 9.5 4a8.5 8.5 0 1 0 10.5 10.5Z" />
  </symbol>
  <symbol id="trophy" viewBox="0 0 24 24" fill="none" stroke="currentColor" stroke-width="1.5" stroke-linecap="round" stroke-linejoin="round">
    <path d="M8 4h8v5a4 4 0 0 1-8 0V4Z" />
    <path d="M8 6H4.75A3.6 3.6 0 0 0 8.4 10.5" />
    <path d="M16 6h3.25a3.6 3.6 0 0 1-3.65 4.5" />
    <path d="M12 13v4" />
    <path d="M9.5 20c0-1.66 1.12-3 2.5-3s2.5 1.34 2.5 3" />
    <path d="M8 20h8" />
  </symbol>
  <symbol id="phone" viewBox="0 0 24 24" fill="none" stroke="currentColor" stroke-width="1.5" stroke-linecap="round" stroke-linejoin="round">
    <rect x="7" y="3" width="10" height="18" rx="2.5" />
    <path d="M10.5 17.75h3" />
  </symbol>
  <symbol id="wrench" viewBox="0 0 24 24" fill="none" stroke="currentColor" stroke-width="1.5" stroke-linecap="round" stroke-linejoin="round">
    <path d="M13.6 6.1a4.3 4.3 0 0 0-4.9 5.6L4.6 15.8a2 2 0 1 0 2.8 2.8l4.1-4.1a4.3 4.3 0 0 0 5.6-4.9l-2.7 2.7-2.4-.7-.7-2.4 2.3-2.3Z" />
  </symbol>
  <symbol id="sprout" viewBox="0 0 24 24" fill="none" stroke="currentColor" stroke-width="1.5" stroke-linecap="round" stroke-linejoin="round">
    <path d="M12 20.5v-7.5" />
    <path d="M12 13c0-3.6 2.6-6.25 6.25-6.25 0 3.6-2.65 6.25-6.25 6.25Z" />
    <path d="M12 10.25c0-2.9-2.1-5-5-5 0 2.9 2.1 5 5 5" />
  </symbol>
  <symbol id="grad-cap" viewBox="0 0 24 24" fill="none" stroke="currentColor" stroke-width="1.5" stroke-linecap="round" stroke-linejoin="round">
    <path d="M2.75 9.5 12 5l9.25 4.5L12 14 2.75 9.5Z" />
    <path d="M7 11.75V16c0 1.38 2.24 2.5 5 2.5s5-1.12 5-2.5v-4.25" />
    <path d="M21.25 9.5v5" />
  </symbol>
  <symbol id="mic" viewBox="0 0 24 24" fill="none" stroke="currentColor" stroke-width="1.5" stroke-linecap="round" stroke-linejoin="round">
    <rect x="9.5" y="2.75" width="5" height="10" rx="2.5" />
    <path d="M6 10.75a6 6 0 0 0 12 0" />
    <path d="M12 16.75v3.5" />
    <path d="M9 20.25h6" />
  </symbol>
  <symbol id="sparkle" viewBox="0 0 24 24" fill="none" stroke="currentColor" stroke-width="1.5" stroke-linecap="round" stroke-linejoin="round">
    <path d="M12 3.5l1.9 6.6 6.6 1.9-6.6 1.9-1.9 6.6-1.9-6.6L3.5 12l6.6-1.9L12 3.5Z" />
  </symbol>
  <symbol id="arrow-down" viewBox="0 0 24 24" fill="none" stroke="currentColor" stroke-width="1.5" stroke-linecap="round" stroke-linejoin="round">
    <path d="M12 4.5v15" />
    <path d="M5.75 13.25 12 19.5l6.25-6.25" />
  </symbol>
  <symbol id="note" viewBox="0 0 24 24" fill="none" stroke="currentColor" stroke-width="1.5" stroke-linecap="round" stroke-linejoin="round">
    <path d="M9 18.25V5.75l9-2v12.5" />
    <circle cx="6.75" cy="18.25" r="2.25" />
    <circle cx="15.75" cy="16.25" r="2.25" />
  </symbol>
  <symbol id="x" viewBox="0 0 24 24" fill="none" stroke="currentColor" stroke-width="1.5" stroke-linecap="round" stroke-linejoin="round">
    <path d="M6.5 6.5l11 11M17.5 6.5l-11 11" />
  </symbol>
  <symbol id="smiski" viewBox="0 0 24 24" fill="none" stroke="currentColor" stroke-width="1.5" stroke-linecap="round" stroke-linejoin="round">
    <circle cx="12" cy="8.2" r="5.2" />
    <path d="M8.6 12.1 8 16.6a3.6 3.6 0 0 0 3.55 4.3h.9A3.6 3.6 0 0 0 16 16.6l-.6-4.5" />
    <ellipse cx="10.1" cy="8.5" rx="0.5" ry="0.9" fill="currentColor" stroke="none" />
    <ellipse cx="13.9" cy="8.5" rx="0.5" ry="0.9" fill="currentColor" stroke="none" />
    <circle cx="12" cy="10.7" r="0.45" fill="currentColor" stroke="none" />
  </symbol>
</svg>
