<svg xmlns="http://www.w3.org/2000/svg" style="display: none">
  <!-- Site icon set: 24px grid, 1.5px stroke, round caps — tinted via
       currentColor so every icon themes for free. -->
  <symbol id="play" viewBox="0 0 24 24" fill="none" stroke="currentColor" stroke-width="1.5" stroke-linecap="round" stroke-linejoin="round">
    <path d="M8.5 5.75v12.5l10-6.25z" />
  </symbol>
  <symbol id="pause" viewBox="0 0 24 24" fill="none" stroke="currentColor" stroke-width="1.5" stroke-linecap="round" stroke-linejoin="round">
    <path d="M9 5.75v12.5M15 5.75v12.5" />
  </symbol>
  <symbol id="sun" viewBox="0 0 24 24" fill="none" stroke="currentColor" stroke-width="1.5" stroke-linecap="round" stroke-linejoin="round">
    <circle cx="12" cy="12" r="4" />
    <path d="M12 2.75v2M12 19.25v2M2.75 12h2M19.25 12h2M5.28 5.28l1.42 1.42M17.3 17.3l1.42 1.42M18.72 5.28 17.3 6.7M6.7 17.3l-1.42 1.42" />
  </symbol>
  <symbol id="moon" viewBox="0 0 24 24" fill="none" stroke="currentColor" stroke-width="1.5" stroke-linecap="round" stroke-linejoin="round">
    <path d="M20 14.5A8.5 8.5 0 0 1 9.5 4a8.5 8.5 0 1 0 10.5 10.5Z" />
  </symbol>
  <symbol id="trophy" viewBox="0 0 24 24" fill="none" stroke="currentColor" stroke-width="1.5" stroke-linecap="round" stroke-linejoin="round">
    <path d="M8 4h8v5a4 4 0 0 1-8 0V4Z" />
    <path d="M8 6H4.75A3.6 3.6 0 0 0 8.4 10.5" />
    <path d="M16 6h3.25a3.6 3.6 0 0 1-3.65 4.5" />
    <path d="M12 13v4" />
    <path d="M9.5 20c0-1.66 1.12-3 2.5-3s2.5 1.34 2.5 3" />
    <path d="M8 20h8" />
  </symbol>
  <symbol id="phone" viewBox="0 0 24 24" fill="none" stroke="currentColor" stroke-width="1.5" stroke-linecap="round" stroke-linejoin="round">
    <rect x="7" y="3" width="10" height="18" rx="2.5" />
    <path d="M10.5 17.75h3" />
  </symbol>
  <symbol id="wrench" viewBox="0 0 24 24" fill="none" stroke="currentColor" stroke-width="1.5" stroke-linecap="round" stroke-linejoin="round">
    <path d="M13.6 6.1a4.3 4.3 0 0 0-4.9 5.6L4.6 15.8a2 2 0 1 0 2.8 2.8l4.1-4.1a4.3 4.3 0 0 0 5.6-4.9l-2.7 2.7-2.4-.7-.7-2.4 2.3-2.3Z" />
  </symbol>
  <symbol id="sprout" viewBox="0 0 24 24" fill="none" stroke="currentColor" stroke-width="1.5" stroke-linecap="round" stroke-linejoin="round">
    <path d="M12 20.5v-7.5" />
    <path d="M12 13c0-3.6 2.6-6.25 6.25-6.25 0 3.6-2.65 6.25-6.25 6.25Z" />
    <path d="M12 10.25c0-2.9-2.1-5-5-5 0 2.9 2.1 5 5 5" />
  </symbol>
  <symbol id="grad-cap" viewBox="0 0 24 24" fill="none" stroke="currentColor" stroke-width="1.5" stroke-linecap="round" stroke-linejoin="round">
    <path d="M2.75 9.5 12 5l9.25 4.5L12 14 2.75 9.5Z" />
    <path d="M7 11.75V16c0 1.38 2.24 2.5 5 2.5s5-1.12 5-2.5v-4.25" />
    <path d="M21.25 9.5v5" />
  </symbol>
  <symbol id="mic" viewBox="0 0 24 24" fill="none" stroke="currentColor" stroke-width="1.5" stroke-linecap="round" stroke-linejoin="round">
    <rect x="9.5" y="2.75" width="5" height="10" rx="2.5" />
    <path d="M6 10.75a6 6 0 0 0 12 0" />
    <path d="M12 16.75v3.5" />
    <path d="M9 20.25h6" />
  </symbol>
  <symbol id="sparkle" viewBox="0 0 24 24" fill="none" stroke="currentColor" stroke-width="1.5" stroke-linecap="round" stroke-linejoin="round">
    <path d="M12 3.5l1.9 6.6 6.6 1.9-6.6 1.9-1.9 6.6-1.9-6.6L3.5 12l6.6-1.9L12 3.5Z" />
  </symbol>
  <symbol id="arrow-down" viewBox="0 0 24 24" fill="none" stroke="currentColor" stroke-width="1.5" stroke-linecap="round" stroke-linejoin="round">
    <path d="M12 4.5v15" />
    <path d="M5.75 13.25 12 19.5l6.25-6.25" />
  </symbol>
  <symbol id="note" viewBox="0 0 24 24" fill="none" stroke="currentColor" stroke-width="1.5" stroke-linecap="round" stroke-linejoin="round">
    <path d="M9 18.25V5.75l9-2v12.5" />
    <circle cx="6.75" cy="18.25" r="2.25" />
    <circle cx="15.75" cy="16.25" r="2.25" />
  </symbol>
  <symbol id="x" viewBox="0 0 24 24" fill="none" stroke="currentColor" stroke-width="1.5" stroke-linecap="round" stroke-linejoin="round">
    <path d="M6.5 6.5l11 11M17.5 6.5l-11 11" />
  </symbol>
  <symbol id="copy" viewBox="0 0 24 24" fill="none" stroke="currentColor" stroke-width="1.5" stroke-linecap="round" stroke-linejoin="round">
    <rect x="9" y="9" width="11" height="11" rx="2" />
    <path d="M5.5 15H5a2 2 0 0 1-2-2V5a2 2 0 0 1 2-2h8a2 2 0 0 1 2 2v.5" />
  </symbol>
  <symbol id="check" viewBox="0 0 24 24" fill="none" stroke="currentColor" stroke-width="1.5" stroke-linecap="round" stroke-linejoin="round">
    <path d="M4.75 12.75 9.5 17.5 19.25 6.75" />
  </symbol>
  <symbol id="smiski" viewBox="0 0 24 24" fill="none" stroke="currentColor" stroke-width="1.5" stroke-linecap="round" stroke-linejoin="round">
    <circle cx="12" cy="8.2" r="5.2" />
    <path d="M8.6 12.1 8 16.6a3.6 3.6 0 0 0 3.55 4.3h.9A3.6 3.6 0 0 0 16 16.6l-.6-4.5" />
    <ellipse cx="10.1" cy="8.5" rx="0.5" ry="0.9" fill="currentColor" stroke="none" />
    <ellipse cx="13.9" cy="8.5" rx="0.5" ry="0.9" fill="currentColor" stroke="none" />
    <circle cx="12" cy="10.7" r="0.45" fill="currentColor" stroke="none" />
  </symbol>
  <!-- Custom upright take on the Duolingo owl mark — currentColor so it
       picks up the design system's sage like every other icon. -->
  <symbol id="duo" viewBox="0 0 24 24" fill="currentColor" stroke="none">
    <path d="M 11.8 5.7 C 11.2 3.9, 10.1 3.6, 9.3 4.0 C 8.5 4.5, 7.9 5.3, 7.6 6.3 C 5.8 6.9, 3.4 7.2, 1.9 8.4 C 1.2 9.0, 1.4 9.7, 2.2 9.8 C 3.6 11.5, 5.0 13.0, 6.4 14.0 C 6.9 15.8, 7.9 16.8, 9.4 17.2 C 10.9 17.7, 13.1 17.7, 14.6 17.2 C 16.1 16.8, 17.1 15.8, 17.6 14.0 C 19.0 13.0, 20.4 11.5, 21.8 9.8 C 22.6 9.7, 22.8 9.0, 22.1 8.4 C 20.6 7.2, 18.2 6.9, 16.4 6.3 C 16.1 5.3, 15.5 4.5, 14.7 4.0 C 13.9 3.6, 12.4 3.9, 11.8 5.7 Z" />
    <rect x="4.8" y="18.2" width="3.2" height="1.6" rx="0.8" transform="rotate(-38 6.4 19.0)" />
    <rect x="16.0" y="18.2" width="3.2" height="1.6" rx="0.8" transform="rotate(38 17.6 19.0)" />
  </symbol>
  <symbol id="email" viewBox="0 0 24 24" fill="none" stroke="currentColor" stroke-width="1.5" stroke-linecap="round" stroke-linejoin="round">
    <rect x="3.5" y="5.5" width="17" height="13" rx="2.5" />
    <path d="m4.5 7.75 7.5 5.5 7.5-5.5" />
  </symbol>
  <symbol id="resume-doc" viewBox="0 0 24 24" fill="none" stroke="currentColor" stroke-width="1.5" stroke-linecap="round" stroke-linejoin="round">
    <path d="M6.5 4.75a1 1 0 0 1 1-1h5.75L17.5 8v11.25a1 1 0 0 1-1 1h-9a1 1 0 0 1-1-1z" />
    <path d="M13.25 3.75V8h4.25" />
    <path d="M9.5 12.5h5M9.5 15.5h5" />
  </symbol>
  <symbol id="github" viewBox="0 0 24 24" fill="none" stroke="currentColor" stroke-width="1.5" stroke-linecap="round" stroke-linejoin="round">
    <path d="M6.6 10.9c0-1.1.3-2.1.9-3l-.7-2.8 2.9 1.1a6.8 6.8 0 0 1 4.6 0l2.9-1.1-.7 2.8c.6.9.9 1.9.9 3 0 3.5-2.8 5.8-5.4 5.8s-5.4-2.3-5.4-5.8Z" />
    <path d="M12 16.7v2.1c0 .9-.8 1.2-1.7 1.2" />
  </symbol>
  <symbol id="linkedin" viewBox="0 0 24 24" fill="none" stroke="currentColor" stroke-width="1.5" stroke-linecap="round" stroke-linejoin="round">
    <rect x="4" y="4" width="16" height="16" rx="3" />
    <path d="M8.5 8.4h0" />
    <path d="M8.5 11.2v4.8" />
    <path d="M12.1 16v-4.8" />
    <path d="M12.1 13.4c0-1.3 1-2.3 2-2.3s1.9 1 1.9 2.3V16" />
  </symbol>
</svg>
